<?xml version="1.0" standalone="no"?>
<!DOCTYPE svg PUBLIC "-//W3C//DTD SVG 20010904//EN"
 "http://www.w3.org/TR/2001/REC-SVG-20010904/DTD/svg10.dtd">
<svg version="1.0" xmlns="http://www.w3.org/2000/svg"
 width="736.000000pt" height="736.000000pt" viewBox="0 0 736.000000 736.000000"
 preserveAspectRatio="xMidYMid meet">

<g transform="translate(0.000000,736.000000) scale(0.100000,-0.100000)"
fill="#000000" stroke="none">
<path d="M0 3680 l0 -3679 1313 -1 1313 0 49 143 c63 186 157 440 251 679 257
653 429 1136 440 1236 3 26 1 59 -5 74 -20 53 -64 62 -466 98 -425 39 -737 89
-824 132 -118 59 -186 249 -198 553 -9 238 13 361 95 535 82 173 96 190 370
472 139 144 152 160 152 193 0 42 -8 60 -57 123 -60 79 -113 194 -210 461 -94
258 -147 434 -184 610 -63 302 -68 671 -12 971 14 80 39 160 50 160 14 0 96
-67 149 -122 122 -126 237 -305 327 -508 84 -191 110 -292 177 -680 89 -519
138 -737 181 -807 23 -36 74 -52 118 -37 14 5 51 43 82 85 31 41 80 96 108
121 108 97 307 192 444 212 43 6 81 17 86 24 11 19 118 35 204 30 l78 -5 35
40 c19 23 34 49 34 59 0 11 -15 42 -33 71 -18 29 -54 90 -79 137 -73 135 -364
719 -392 786 -65 158 -116 399 -116 555 0 133 44 272 129 411 81 132 143 188
209 188 56 0 110 -72 172 -229 98 -248 192 -569 305 -1031 42 -173 95 -389
117 -480 22 -91 47 -192 55 -225 8 -33 30 -125 49 -205 20 -80 40 -165 46
-190 17 -76 18 -79 37 -85 10 -3 60 9 112 26 84 28 102 31 184 27 186 -10 386
-111 561 -283 110 -109 174 -233 174 -340 0 -208 -171 -555 -515 -1045 -117
-168 -289 -359 -400 -445 -128 -100 -128 -104 10 -306 166 -245 342 -518 552
-854 268 -429 474 -722 602 -858 131 -139 222 -222 313 -283 36 -24 87 -62
113 -83 26 -21 80 -55 121 -75 l74 -36 430 0 430 0 0 3680 -1 3680 -267 0
c-201 0 -271 -3 -281 -12 -11 -10 -12 -10 -7 -1 6 10 -684 13 -3398 13 l-3406
0 0 -3680z m347 3518 c-3 -8 -6 -5 -6 6 -1 11 2 17 5 13 3 -3 4 -12 1 -19z
m5847 -177 c-2 -3 -12 3 -22 13 -16 17 -16 18 5 5 12 -7 20 -15 17 -18z
m-4831 -56 c-3 -9 -8 -14 -10 -11 -3 3 -2 9 2 15 9 16 15 13 8 -4z m5734 -341
c-3 -3 -12 -4 -19 -1 -8 3 -5 6 6 6 11 1 17 -2 13 -5z m-850 -39 c0 -8 -4 -12
-9 -9 -5 3 -6 10 -3 15 9 13 12 11 12 -6z m-1372 -345 c-3 -5 -12 -10 -18 -10
-7 0 -6 4 3 10 19 12 23 12 15 0z m1076 -257 c-12 -20 -14 -14 -5 12 4 9 9 14
11 11 3 -2 0 -13 -6 -23z m-5076 -103 c3 -5 1 -10 -4 -10 -6 0 -11 5 -11 10 0
6 2 10 4 10 3 0 8 -4 11 -10z m890 -109 c3 -5 2 -12 -3 -15 -5 -3 -9 1 -9 9 0
17 3 19 12 6z m4085 -281 c0 -5 -5 -10 -11 -10 -5 0 -7 5 -4 10 3 6 8 10 11
10 2 0 4 -4 4 -10z m-560 -504 c0 -3 -4 -8 -10 -11 -5 -3 -10 -1 -10 4 0 6 5
11 10 11 6 0 10 -2 10 -4z m1000 -790 c0 -2 -7 -7 -16 -10 -8 -3 -12 -2 -9 4
6 10 25 14 25 6z m-580 -1400 c0 -2 -8 -10 -17 -17 -16 -13 -17 -12 -4 4 13
16 21 21 21 13z m-5125 -114 c-3 -3 -11 0 -18 7 -9 10 -8 11 6 5 10 -3 15 -9
12 -12z m4765 -6 c0 -3 -4 -8 -10 -11 -5 -3 -10 -1 -10 4 0 6 5 11 10 11 6 0
10 -2 10 -4z m-4635 -16 c3 -6 -1 -7 -9 -4 -18 7 -21 14 -7 14 6 0 13 -4 16
-10z m4702 -132 c-3 -8 -6 -5 -6 6 -1 11 2 17 5 13 3 -3 4 -12 1 -19z m358
-447 c3 -5 2 -12 -3 -15 -5 -3 -9 1 -9 9 0 17 3 19 12 6z m-4795 -795 c0 -2
-8 -10 -17 -17 -16 -13 -17 -12 -4 4 13 16 21 21 21 13z m1455 -246 c3 -5 1
-10 -4 -10 -6 0 -11 5 -11 10 0 6 2 10 4 10 3 0 8 -4 11 -10z m-2255 -70 c0
-5 -2 -10 -4 -10 -3 0 -8 5 -11 10 -3 6 -1 10 4 10 6 0 11 -4 11 -10z m570
-130 c0 -5 -5 -10 -11 -10 -5 0 -7 5 -4 10 3 6 8 10 11 10 2 0 4 -4 4 -10z
m1166 -560 c0 -12 -4 -16 -9 -11 -5 5 -6 14 -3 20 10 15 12 14 12 -9z"/>
<path d="M3895 4216 c-46 -46 -44 -76 15 -216 17 -41 79 -200 136 -353 97
-257 134 -350 231 -577 20 -47 49 -98 65 -115 58 -61 158 -24 158 59 0 18 -28
98 -61 177 -87 204 -103 244 -170 424 -161 429 -222 576 -252 601 -38 32 -90
32 -122 0z"/>
<path d="M2613 3555 c-75 -32 -69 -115 14 -202 10 -11 45 -51 78 -89 179 -206
385 -413 465 -467 66 -45 155 -4 155 71 0 35 -11 49 -181 217 -99 99 -230 236
-290 305 -136 155 -139 159 -170 170 -31 12 -32 12 -71 -5z"/>
<path d="M3891 2891 c-6 -11 -16 -42 -22 -70 -6 -28 -13 -51 -15 -51 -3 0 -28
16 -57 35 -58 39 -91 44 -107 16 -15 -28 -4 -46 48 -81 26 -16 58 -39 71 -50
l23 -20 -41 -147 c-46 -159 -47 -193 -6 -193 34 0 48 26 85 155 18 61 33 111
35 113 2 2 40 -24 86 -57 83 -61 122 -74 133 -45 15 38 4 54 -71 107 -133 94
-127 85 -108 157 9 34 15 81 13 103 -3 37 -6 42 -30 45 -18 2 -30 -3 -37 -17z"/>
</g>
</svg>
